<svg width="86" height="46" viewBox="0 0 86 46" fill="none" xmlns="http://www.w3.org/2000/svg">
<path d="M24.552 0.559998L40.104 40.624C40.7013 42.16 41.3627 43.2267 42.088 43.824C42.856 44.3787 43.5387 44.6773 44.136 44.72V46C42.856 45.9147 41.3413 45.872 39.592 45.872C37.8853 45.8293 36.1573 45.808 34.408 45.808C32.4453 45.808 30.5893 45.8293 28.84 45.872C27.0907 45.872 25.704 45.9147 24.68 46V44.72C26.856 44.6347 28.2213 44.272 28.776 43.632C29.3733 42.9493 29.2453 41.52 28.392 39.344L17.512 9.584L18.664 7.92L8.936 33.264C7.99733 35.6107 7.42133 37.5307 7.208 39.024C7.03733 40.5173 7.144 41.6693 7.528 42.48C7.95467 43.2907 8.616 43.8667 9.512 44.208C10.4507 44.5067 11.56 44.6773 12.84 44.72V46C11.432 45.9147 10.088 45.872 8.808 45.872C7.528 45.8293 6.22667 45.808 4.904 45.808C3.96533 45.808 3.06933 45.8293 2.216 45.872C1.40533 45.872 0.68 45.9147 0.04 46V44.72C0.936 44.5493 1.85333 43.9733 2.792 42.992C3.73067 42.0107 4.648 40.3467 5.544 38L20.136 0.559998C20.8187 0.602664 21.544 0.623997 22.312 0.623997C23.1227 0.623997 23.8693 0.602664 24.552 0.559998ZM29.032 27.568V28.848H9.96L10.6 27.568H29.032ZM65.9595 0.559998L81.5115 40.624C82.1088 42.16 82.7702 43.2267 83.4955 43.824C84.2635 44.3787 84.9462 44.6773 85.5435 44.72V46C84.2635 45.9147 82.7488 45.872 80.9995 45.872C79.2928 45.8293 77.5648 45.808 75.8155 45.808C73.8528 45.808 71.9968 45.8293 70.2475 45.872C68.4982 45.872 67.1115 45.9147 66.0875 46V44.72C68.2635 44.6347 69.6288 44.272 70.1835 43.632C70.7808 42.9493 70.6528 41.52 69.7995 39.344L58.9195 9.584L60.0715 7.92L50.3435 33.264C49.4048 35.6107 48.8288 37.5307 48.6155 39.024C48.4448 40.5173 48.5515 41.6693 48.9355 42.48C49.3622 43.2907 50.0235 43.8667 50.9195 44.208C51.8582 44.5067 52.9675 44.6773 54.2475 44.72V46C52.8395 45.9147 51.4955 45.872 50.2155 45.872C48.9355 45.8293 47.6342 45.808 46.3115 45.808C45.3728 45.808 44.4768 45.8293 43.6235 45.872C42.8128 45.872 42.0875 45.9147 41.4475 46V44.72C42.3435 44.5493 43.2608 43.9733 44.1995 42.992C45.1382 42.0107 46.0555 40.3467 46.9515 38L61.5435 0.559998C62.2262 0.602664 62.9515 0.623997 63.7195 0.623997C64.5302 0.623997 65.2768 0.602664 65.9595 0.559998ZM70.4395 27.568V28.848H51.3675L52.0075 27.568H70.4395Z" fill="white"/>
</svg>
